<?xml version="1.0" encoding="utf-8"?>
<!-- Generator: Adobe Illustrator 24.3.0, SVG Export Plug-In . SVG Version: 6.00 Build 0)  -->
<svg version="1.1" id="dribbble" xmlns="http://www.w3.org/2000/svg" xmlns:xlink="http://www.w3.org/1999/xlink" x="0px" y="0px"
	 viewBox="0 0 64 64" style="enable-background:new 0 0 64 64;" xml:space="preserve">
<style type="text/css">
	.st0{fill:#FCD116;}
	.st1{fill:#006B3F;}
	.st2{fill:#CE1126;}
</style>
<g>
	<g>
		<path class="st0" d="M24.9,59.9c-0.2,0-0.4,0-0.5,0c0-0.1,0-0.2,0-0.4c-0.4-0.2-0.9-0.3-1.1-0.7c-0.3-0.4-0.6-0.5-1-0.6
			c-1.8-0.4-3.5-0.8-5.3-1.2c-0.4-0.1-0.8-0.2-1.1-0.3c0.6-0.4,0.6-0.4,1-0.1c0.1,0.1,0.3,0.1,0.4,0.1c0.4-0.2,0.8-0.3,1.3-0.1
			c0.3,0.1,0.6-0.1,0.5-0.5c-0.1-0.3-0.2-0.5-0.3-0.8c0-0.3,0-0.6,0-0.9c0.5-0.1,0.3-0.4,0.3-0.7c-0.1-0.3-0.2-0.7-0.3-1
			c0-0.2,0.1-0.4-0.3-0.5c-0.2-0.1-0.4-0.2-0.7-0.1c-0.5,0.2-0.7,0-0.6-0.5c0-0.2-0.1-0.3-0.3-0.3c-0.1,0-0.2,0-0.3,0
			c0-0.2,0-0.4,0-0.6c0-0.4,0-0.7-0.2-1.1c-0.2-0.4-0.3-0.9-0.4-1.4c-0.1-0.4-0.2-0.9-0.4-1.3c-0.2-0.3-0.3-0.7-0.4-1
			c-0.1-0.7-0.3-1.3-0.4-2c0-0.1-0.1-0.1-0.1-0.2c0-0.7,0-1.3,0-2c0.1,0,0.1,0,0.2-0.1c0.3-0.4,0.5-0.9,0.8-1.3
			c0.2-0.4,0.4-0.8,0.9-0.8c0.2-0.4,0.4-0.7,0.5-1.1c0.1-0.1,0.1-0.3,0.1-0.5c0-0.3,0-0.6,0-0.8c0.1-0.6,0.3-1.1,0.3-1.7
			c0-0.6,0.3-1.1,0.5-1.6c0.3-0.6,0.8-1.2,0.8-1.9c0.1-0.1,0.3-0.1,0.4-0.1c0.3-0.4,0.7-0.7,1.3-0.7c-0.1-0.3-0.1-0.5-0.2-0.7
			c0-0.1,0-0.2,0-0.3c0.1-0.3,0.5-0.2,0.8-0.3c0.1-0.1,0.2-0.2,0.2-0.2c-0.2-1.5-0.5-3.1-0.8-4.6c0-0.1-0.2-0.3-0.3-0.4
			c0.2-0.3,0.1-0.9-0.2-1.2c-0.2-0.2-0.4-0.4-0.2-0.7c-0.3-0.1-0.6-0.1-0.8-0.2c-0.1-0.1-0.1-0.5-0.1-0.7c0,0,0-0.1,0-0.1
			c0.3-0.4,0.6-0.7,0.9-1.1C19,20.4,19,20.3,19.3,20c0.3-0.4,0.2-1.2-0.2-1.5c-0.5-0.4-0.5-0.5-0.3-1c0-0.1,0-0.4-0.1-0.4
			c-0.3-0.1-0.2-0.3-0.2-0.5c0-0.2,0.1-0.4,0.3-0.5c0.2-0.2,0.1-0.3,0.1-0.4c-0.1-0.3-0.1-0.5-0.1-0.8c0-0.2,0-0.4-0.1-0.6
			c-0.2-0.7-0.4-1.4,0.1-2.1c0,0,0,0,0,0c-0.3-0.3-0.6-0.4-0.7-0.7c-0.1-0.4,0.2-0.7,0.7-0.8c-0.9-0.3-0.9-0.3-1.2-1.2
			c0-0.1-0.1-0.2-0.1-0.2c-0.1-0.3-0.3-0.6,0-0.8c0,0,0-0.1,0-0.1c-0.2-0.2,0-0.5,0.1-0.7c0.1-0.4,0.3-0.8,0.5-1.1
			c0.2-0.2,0.2-0.4,0.1-0.6c-0.2-0.3-0.1-0.4,0.3-0.4c0.3,0,0.6,0.1,0.9,0.1c0.4,0,0.8-0.1,1.2-0.1c1.1,0,2.2,0,3.3,0
			c1.7,0,3.4,0,5.2,0c0-0.1,0.1-0.2,0.1-0.2c0.5,0,1,0,1.4,0.1c0.2,0,0.4,0.2,0.5,0.2c0.7,0,1.5,0.2,2.2-0.1c0.3-0.1,0.7,0.1,1,0.1
			c0.4,0,0.8,0.2,1.3,0c0.4-0.1,0.9,0.1,1.4,0.2c0,0-0.1,0.1-0.1,0.1c0.1,0.1,0.2,0.3,0.4,0.4c0.1-0.1,0.2-0.2,0.3-0.3
			c0.1-0.2,0.1-0.4,0.4-0.3c0.3,0.1,0.8-0.4,0.9-0.6c0.1-0.2,0.2-0.4,0.3-0.4c0.1,0,0.3,0.1,0.5,0.2c0.1-0.1,0.3-0.3,0.5-0.4
			c0-0.1-0.1-0.2-0.1-0.3c0.3,0,0.6,0,0.9,0c0.2,0.1,0.4,0.2,0.5,0.3c0.2,0.3,0.5,0.3,0.8,0.3c0.2,0,0.6,0.1,0.6,0.2
			c0.1,0.3,0.1,0.7-0.1,0.9c-0.2,0.3-0.2,0.7-0.3,1.1c0,0.2-0.1,0.4-0.2,0.5C42,7.7,41.8,8,41.8,8.3c0,0.2,0,0.5,0.4,0.5
			c0.1,0,0.2,0.1,0.3,0.1c0.4,0.3,0.8,0.5,1.1,0.8c0.1,0.1,0.2,0.3,0.3,0.4c0.2,0.5,0.3,0.6,0.8,0.5c0.1,0,0.3,0,0.3,0.1
			c0.1,0.3,0.2,0.6,0.3,0.9c0.2,0,0.3,0,0.6,0c-0.6,0.9-0.4,1.7,0.1,2.4c-0.2,0-0.3,0.1-0.4,0.1c0,0.3,0.1,0.6,0,0.8
			c-0.3,0.5-0.1,1.1-0.3,1.6c0,0.1,0.1,0.1,0.1,0.2c0.1,0.2,0.1,0.5-0.1,0.6c-0.2,0-0.4-0.1-0.7-0.1c0.1,0.4,0.2,0.6,0.6,0.4
			c0.1,0,0.2,0,0.3,0.1c0,0,0.1,0.2,0,0.2c-0.1,0.1-0.2,0.1-0.3,0.1c-0.3,0.1-0.6,0.2-0.9,0.3c0.1,0.1,0.2,0.1,0.3,0.1
			c0.1,0,0.2,0.1,0.3,0.1c0,0,0,0.1,0,0.1c-0.2,0.1-0.4,0.2-0.6,0.3c0.2,0.3,0.7,0.4,0.8,0.1c0.1-0.4,0.4-0.4,0.7-0.4
			c0.4-0.1,0.9,0.2,0.9,0.6c0.4,0,0.5,0.2,0.4,0.5c-0.1,0.3,0,0.6-0.3,0.8c-0.1,0-0.1,0.2,0,0.3c0.2,0.4-0.1,0.7-0.3,0.9
			c0,0.2,0,0.3-0.1,0.5c0,0.1-0.1,0.2-0.1,0.3c-0.1,0.3,0.1,0.5,0.3,0.8c0.3,0.4,0.2,0.9,0,1.3c-0.1,0.1-0.3,0.1-0.4,0.2
			c-0.1,0.1-0.2,0.1-0.4,0.2c0,0.1,0,0.3,0,0.4c0.1,0.2,0.2,0.4,0.3,0.5c0.1,0.2,0.2,0.4,0.4,0.5c0.4,0.3,0.8,0.5,1.2,0.8
			c0.1,0.1,0.2,0.2,0.3,0.3c0,0.2,0.1,0.4,0.3,0.6c0.2,0.1,0.2,0.4,0.3,0.7c0,0.1-0.1,0.2-0.2,0.3c-0.3,0.2-0.7,0.4-0.9,0.6
			c0.1,1.5,0.2,2.9,0.3,4.4c-0.4-0.1-0.4,0.1-0.4,0.3c0,0.3,0,0.5-0.3,0.5c-0.1,0-0.2,0.2-0.2,0.3c0,0.2,0,0.4-0.1,0.6
			c-0.1,0.7,0.4,1.1,1,0.8c0,0,0,0,0.1,0c0,0.3,0.1,0.6,0.1,1c0,0.4-0.1,0.9-0.4,1.2c0,0.1,0,0.2,0,0.3c0.1,0.8-0.1,1-0.8,1.1
			c0,0,0,0,0,0.1c0,0-0.1,0.1-0.1,0.1c0.1,0.1,0.2,0.1,0.3,0.2c0.2,0.1,0.2,0.3,0.1,0.5c-0.1,0.3,0.1,1,0.4,1.1
			c0.3,0.1,0.3,0.3,0.3,0.6c0,0.7,0,0.7,0.7,0.9c0.1,0,0.2,0.2,0.1,0.3c-0.2,0.3-0.1,0.5,0.1,0.7c0.2,0.2,0.4,0.4,0.6,0.6
			c0.2,0.2,0.4,0.3,0.6,0.4c0.2,0.1,0.3,0.3,0.5,0.3c0.4,0,0.5,0.1,0.6,0.5c0.1,0.5,0.6,0.8,1.1,0.8c0.2,0,0.3,0,0.5,0
			c0,0.2,0,0.5,0,0.7c-0.6,0.1-0.9,0.6-1.3,1c-0.2,0.2-0.3,0.5-0.4,0.8c-0.2,0.8-0.2,1-1.1,1.1c-0.7,0.1-1.3,0-2,0
			c-0.4,0-0.8-0.1-1.3-0.1c0.2-0.2,0.3-0.3,0.4-0.4c-1-0.1-1-0.1-0.8,0.4c0,0-0.1,0-0.1,0c-0.6-0.1-1.1-0.1-1.6,0.3
			c0,0-0.1,0-0.2,0.1c-0.4,0.2-0.9,0.3-1.3,0.5c-0.4,0.3-0.7,0.6-1.1,0.7c-0.6,0.2-1.1,0.6-1.7,0.7c-0.8,0.2-1.4,0.5-1.9,1
			c-0.1,0.1-0.4,0.3-0.6,0.3c-0.7,0.1-1.4,0.4-1.8,1c-0.1,0.2-0.4,0.3-0.6,0.3c-0.4,0.1-0.9,0.1-1.3,0.1c-0.7-0.1-1.2,0.3-1.8,0.6
			c-0.3,0.2-0.6,0.3-1,0.3c-0.1,0-0.2,0-0.3,0c-0.6,0.2-1.2,0.4-1.9,0.5c-0.3,0.1-0.6,0-0.6,0.4c0,0-0.1,0.1-0.1,0.1
			c-0.3,0.1-0.6,0.3-0.8,0.4c0,0.2,0.1,0.5-0.3,0.5c-0.6,0-1,0.3-1.5,0.7c-0.2,0.2-0.3,0.4-0.7,0.3C25.1,59.7,25,59.8,24.9,59.9z"/>
	</g>
	<path class="st1" d="M14.6,43.9c0,0.1,0.1,0.1,0.1,0.2c0.1,0.7,0.3,1.3,0.4,2c0.1,0.4,0.2,0.7,0.4,1c0.2,0.4,0.3,0.8,0.4,1.3
		c0.1,0.5,0.2,1,0.4,1.4c0.2,0.4,0.2,0.7,0.2,1.1c0,0.2,0,0.4,0,0.6c0.1,0,0.2,0,0.3,0c0.2,0,0.3,0.1,0.3,0.3
		c-0.1,0.5,0.2,0.7,0.6,0.5c0.3-0.1,0.5,0,0.7,0.1c0.3,0.1,0.2,0.3,0.3,0.5c0.1,0.3,0.2,0.7,0.3,1c0.1,0.3,0.3,0.6-0.3,0.7
		c0,0.3-0.1,0.6,0,0.9c0,0.3,0.2,0.5,0.3,0.8c0.1,0.3-0.1,0.6-0.5,0.5c-0.5-0.2-0.9,0-1.3,0.1c-0.1,0-0.3,0-0.4-0.1
		c-0.5-0.3-0.5-0.3-1,0.1c0.4,0.1,0.8,0.2,1.1,0.3c1.8,0.4,3.5,0.8,5.3,1.2c0.4,0.1,0.7,0.2,1,0.6c0.2,0.3,0.7,0.5,1.1,0.7
		c0,0.1,0,0.2,0,0.4c0.2,0,0.4,0,0.5,0c0.1,0,0.2-0.2,0.2-0.1c0.3,0.2,0.5-0.1,0.7-0.3c0.4-0.4,0.9-0.7,1.5-0.7
		c0.4,0,0.3-0.2,0.3-0.5c0.3-0.2,0.6-0.3,0.8-0.4c0,0,0.1-0.1,0.1-0.1c0-0.4,0.3-0.4,0.6-0.4c0.6-0.1,1.3-0.3,1.9-0.5
		c0.1,0,0.2,0,0.3,0c0.4,0,0.7-0.1,1-0.3c0.5-0.4,1.1-0.7,1.8-0.6c0.4,0.1,0.9,0,1.3-0.1c0.2,0,0.4-0.1,0.6-0.3
		c0.5-0.6,1.1-0.9,1.8-1c0.2,0,0.4-0.2,0.6-0.3c0.5-0.6,1.1-0.9,1.9-1c0.6-0.1,1.1-0.5,1.7-0.7c0.4-0.2,0.8-0.5,1.1-0.7
		c0.4-0.3,0.9-0.3,1.3-0.5c0.1,0,0.1,0,0.2-0.1c0.5-0.4,1-0.4,1.6-0.3c0,0,0.1,0,0.1,0C46,50.4,46,50.4,47,50.4
		c-0.1,0.1-0.2,0.2-0.4,0.4c0.5,0.1,0.9,0.1,1.3,0.1c0.7,0,1.3,0.1,2,0c0.9-0.1,0.9-0.2,1.1-1.1c0.1-0.3,0.1-0.6,0.4-0.8
		c0.4-0.4,0.8-0.8,1.3-1c0-0.2,0-0.5,0-0.7c-0.2,0-0.3,0-0.5,0c-0.5,0-0.9-0.3-1.1-0.8c-0.1-0.3-0.2-0.5-0.6-0.5
		c-0.2,0-0.3-0.2-0.5-0.3c-0.2-0.1-0.4-0.2-0.6-0.4c-0.2-0.2-0.4-0.4-0.6-0.6c-0.2-0.2-0.3-0.4-0.1-0.7c0,0-0.1-0.2-0.1-0.3
		C48,43.7,48,43.7,48,43.1c0-0.3,0-0.4-0.3-0.6c0,0-0.1,0-0.1,0h-33C14.6,42.9,14.6,43.4,14.6,43.9z"/>
	<path class="st2" d="M46.8,19.3c0-0.4-0.4-0.7-0.9-0.6c-0.3,0.1-0.6,0-0.7,0.4c-0.1,0.3-0.6,0.2-0.8-0.1c0.2-0.1,0.4-0.2,0.6-0.3
		c0,0,0-0.1,0-0.1c-0.1,0-0.2-0.1-0.3-0.1c-0.1,0-0.2,0-0.3-0.1c0.3-0.1,0.6-0.2,0.9-0.3c0.1,0,0.2-0.1,0.3-0.1c0,0,0-0.2,0-0.2
		c-0.1-0.1-0.3-0.1-0.3-0.1c-0.4,0.2-0.5,0-0.6-0.4c0.2,0,0.4,0.1,0.7,0.1c0.2-0.1,0.2-0.4,0.1-0.6c0-0.1-0.1-0.1-0.1-0.2
		c0.2-0.5-0.1-1.1,0.3-1.6c0.1-0.2,0-0.5,0-0.8c0,0,0.1,0,0.4-0.1c-0.5-0.8-0.7-1.6-0.1-2.4c-0.2,0-0.4,0-0.6,0
		c-0.1-0.3-0.2-0.6-0.3-0.9c0-0.1-0.2-0.1-0.3-0.1c-0.6,0.1-0.6,0-0.8-0.5c-0.1-0.2-0.1-0.3-0.3-0.4c-0.4-0.3-0.7-0.6-1.1-0.8
		c-0.1-0.1-0.2-0.1-0.3-0.1c-0.4,0-0.5-0.3-0.4-0.5C41.8,8,42,7.7,42.2,7.4c0.1-0.2,0.2-0.3,0.2-0.5c0.1-0.4,0.1-0.7,0.3-1.1
		c0.1-0.2,0.1-0.6,0.1-0.9c0-0.1-0.4-0.2-0.6-0.2c-0.3,0-0.6,0-0.8-0.3c-0.1-0.1-0.3-0.2-0.5-0.3c-0.3,0-0.6,0-0.9,0
		c0,0.1,0,0.2,0.1,0.3c-0.2,0.1-0.3,0.3-0.5,0.4c-0.2-0.1-0.4-0.3-0.5-0.2c-0.1,0-0.3,0.3-0.3,0.4c-0.1,0.2-0.6,0.7-0.9,0.6
		c-0.3-0.1-0.3,0.1-0.4,0.3c-0.1,0.1-0.2,0.2-0.3,0.3c-0.1-0.1-0.2-0.3-0.4-0.4c0,0,0.1-0.1,0.1-0.1c-0.5-0.1-1-0.3-1.4-0.2
		c-0.5,0.2-0.9,0-1.3,0c-0.3,0-0.7-0.1-1-0.1c-0.7,0.2-1.5,0.1-2.2,0.1c-0.2,0-0.3-0.1-0.5-0.2c-0.5-0.1-1-0.1-1.4-0.1
		c0,0-0.1,0.2-0.1,0.2c-1.7,0-3.4,0-5.2,0c-1.1,0-2.2,0-3.3,0c-0.4,0-0.8,0.1-1.2,0.1c-0.3,0-0.6-0.1-0.9-0.1
		c-0.3,0-0.4,0.1-0.3,0.4c0.1,0.2,0.1,0.4-0.1,0.6c-0.2,0.3-0.4,0.7-0.5,1.1c-0.1,0.2-0.3,0.4-0.1,0.7c0,0,0,0.1,0,0.1
		c-0.3,0.3-0.1,0.6,0,0.8c0,0.1,0.1,0.2,0.1,0.2c0.3,0.9,0.3,0.9,1.2,1.2c-0.5,0.1-0.8,0.4-0.7,0.8c0.1,0.3,0.4,0.5,0.7,0.7
		c-0.6,0.7-0.3,1.4-0.1,2.1c0,0.2,0,0.4,0.1,0.6c0,0.3,0.1,0.5,0.1,0.8c0,0.2,0.1,0.3-0.1,0.4c-0.1,0.1-0.2,0.3-0.3,0.5
		c0,0.2-0.1,0.4,0.2,0.5c0.1,0,0.1,0.3,0.1,0.4c-0.2,0.5-0.1,0.7,0.3,1c0.4,0.3,0.5,1.1,0.2,1.5c-0.3,0.4-0.2,0.4,0.3,0.7
		c-0.3,0.4-0.6,0.7-0.9,1.1c0,0,0,0.1,0,0.1c0,0.2,0,0.6,0.1,0.7c0.2,0.2,0.5,0.1,0.8,0.2c-0.2,0.3,0,0.5,0.2,0.7
		c0.1,0.1,0.2,0.3,0.2,0.5h26.9c0-0.3,0-0.5-0.2-0.8c-0.2-0.2-0.3-0.5-0.3-0.8c0-0.1,0.1-0.2,0.1-0.3c0-0.2,0.1-0.3,0.1-0.5
		c0.2-0.3,0.5-0.5,0.3-0.9c0-0.1,0-0.3,0-0.3c0.3-0.2,0.2-0.6,0.3-0.8C47.3,19.5,47.2,19.3,46.8,19.3z M18.7,12.2
		C18.7,12.2,18.7,12.2,18.7,12.2L18.7,12.2z"/>
	<polygon points="32.9,24.8 35.1,31.4 42,31.4 36.4,35.4 38.5,42 32.9,37.9 27.3,42 29.5,35.4 23.9,31.4 30.8,31.4 	"/>
</g>
</svg>
