<?xml version="1.0" encoding="utf-8"?>
<!-- Generator: Adobe Illustrator 24.3.0, SVG Export Plug-In . SVG Version: 6.00 Build 0)  -->
<svg version="1.1" id="dribbble" xmlns="http://www.w3.org/2000/svg" xmlns:xlink="http://www.w3.org/1999/xlink" x="0px" y="0px"
	 viewBox="0 0 40 40" style="enable-background:new 0 0 40 40;" xml:space="preserve">
<style type="text/css">
	.st0{display:none;}
	.st1{display:inline;fill:#FFFFFF;}
	.st2{display:inline;fill:#D0B71C;}
	.st3{display:inline;fill:#037633;}
	.st4{display:inline;fill:#DA0F23;}
	.st5{display:inline;fill:#F8AF00;}
	.st6{display:inline;}
</style>
<g class="st0">
	<path class="st1" d="M11.6,36.4c0,0-3,1.2-3.7-2.1c-1.1-4.7-4.6-21.9-4.6-21.9s-2.4-2.7,0-4.6c2.5-2.1,4.1-0.1,4.4,1
		c1.8-0.3,7.7-0.5,12.8,1.5c5.2,1.8,9.2,2.9,13.5,2.4c2.7-0.5,3.7-0.7,3.3,1.1c-1.5,6.1-3.5,12.7-3.5,12.8c0,0.1-1.7,3.3-7.5,2.6
		c-5.6-0.4-12.5-1.9-14.1-0.4c-0.3,0.4,0.7,4.7,0.7,4.7S13.4,35.9,11.6,36.4z"/>
	<path class="st2" d="M5.8,11.5c0,0,3.9-3.3,12.3-0.1c6.6,2.3,8.7,3.2,11.8,3.2c2.5,0.1,5.9-0.6,6.2-1.2c-0.6,1.7-3.8,12.8-3.8,12.8
		s-4.8,3-12.5,0.7c-2.6-0.6-8.7,0.2-9.5,1.3C7.1,15.4,5.8,11.5,5.8,11.5z"/>
	<path class="st3" d="M18.8,21.9c-6.4-1.4-9.8,0.6-9.8,0.6L9,23.1c0.4,1.5,0.8,3.2,1.3,5.1c0.8-1.1,6.9-1.9,9.5-1.3
		c7.7,2.3,12.5-0.7,12.5-0.7s0.3-0.9,0.6-2.2c0.2-0.6,0.4-1.3,0.6-2.2C30.2,24.6,24.6,23.1,18.8,21.9z"/>
	<path class="st4" d="M36.1,13.4c-0.3,0.6-3.7,1.3-6.2,1.2c-3.1,0-5.2-0.9-11.8-3.2C9.7,8.2,5.8,11.5,5.8,11.5s0.4,1.3,1.3,4.6
		l0.3,0.8c0,0,3.3-2.2,9.5-0.6c4.3,1.2,10,3.1,13.2,2.8c2.4-0.2,3.8-0.7,4.6-1C35.4,15.9,35.9,14.1,36.1,13.4z"/>
	<path class="st5" d="M4.6,11.3l5,23c0,0,0,1,1.2,0.9c0.8-0.3,1-0.7,0.7-1.9C10.4,28.3,5.9,11,5.9,11L4.6,11.3z"/>
	<circle class="st5" cx="5.1" cy="10" r="1.4"/>
	<path class="st6" d="M19.5,21.8l0.3-1.7l-1.6-1.6l1.9,0.5c0,0,0.9-1.5,0.9-1.4c0,0.1,0.7,1.8,0.7,1.8l2,0.5c0,0-1.6,0.9-1.5,0.9
		c0.1,0,0.3,1.8,0.3,1.8c0-0.1-1.4-1.3-1.4-1.3L19.5,21.8z"/>
</g>
<g>
	<path d="M20,5.5c4.8,0,9.5,0,14.3,0c1,0,2,0.2,2.8,0.9c1,0.8,1.4,1.9,1.4,3.2c0,6.9,0,13.8,0,20.6c0,0.3,0,0.6,0,0.9
		c-0.1,1.6-1.4,3.1-3,3.4c-0.3,0.1-0.7,0.1-1.1,0.1c-9.6,0-19.2,0-28.8,0c-2,0-3.6-1.2-4-3.2c-0.1-0.3-0.1-0.6-0.1-0.9
		c0-7,0-14.1,0-21.1c0-2,1.3-3.6,3.2-3.9c0.3-0.1,0.7-0.1,1-0.1C10.5,5.5,15.3,5.5,20,5.5z M34.6,30.7c0-6,0-11.9,0-17.9
		c-0.1,0.1-0.2,0.1-0.2,0.2c-2.8,2.6-5.5,5.2-8.3,7.8c-1.4,1.3-2.8,2.6-4.2,3.9c-1.5,1.3-3.3,1.3-4.8,0c-0.4-0.3-0.7-0.7-1-1
		c-3.5-3.4-6.9-6.9-10.4-10.3c-0.1-0.1-0.1-0.1-0.2-0.2c0,5.9,0,11.7,0,17.5C15.2,30.7,24.9,30.7,34.6,30.7z M7,9.4
		c4.2,4.2,8.4,8.3,12.5,12.4c4.4-4.1,8.7-8.2,13.1-12.4C24.1,9.4,15.6,9.4,7,9.4z"/>
</g>
</svg>
